<svg
 xmlns="http://www.w3.org/2000/svg"
 xmlns:xlink="http://www.w3.org/1999/xlink"
 width="180px" height="42px" viewBox="0 0 180 42">
<path fill-rule="evenodd"  fill="rgb(255, 255, 255)"
 d="M174.151,23.575 L179.942,41.039 L171.893,41.039 L167.145,25.367 L165.581,25.367 L165.581,41.039 L157.706,41.039 L157.706,0.790 L167.261,0.790 C168.920,0.790 170.445,0.992 171.835,1.397 C173.225,1.802 174.421,2.477 175.425,3.421 C176.429,4.366 177.211,5.599 177.771,7.122 C178.330,8.645 178.610,10.505 178.610,12.703 C178.610,15.440 178.243,17.676 177.510,19.411 C176.776,21.146 175.657,22.534 174.151,23.575 ZM169.953,9.377 C169.200,8.664 168.225,8.308 167.029,8.308 L165.581,8.308 L165.581,17.792 L166.797,17.792 C167.376,17.792 167.917,17.725 168.419,17.589 C168.920,17.455 169.374,17.194 169.780,16.808 C170.185,16.424 170.503,15.912 170.735,15.276 C170.967,14.640 171.082,13.801 171.082,12.760 C171.082,11.219 170.706,10.091 169.953,9.377 ZM135.470,0.790 L153.942,0.790 L153.942,8.308 L143.345,8.308 L143.345,16.866 L152.610,16.866 L152.610,24.384 L143.345,24.384 L143.345,33.521 L153.942,33.521 L153.942,41.039 L135.470,41.039 L135.470,0.790 ZM120.993,26.293 L119.140,26.293 L119.140,41.039 L111.265,41.039 L111.265,0.790 L120.819,0.790 C122.518,0.790 124.052,0.992 125.423,1.397 C126.793,1.802 127.971,2.477 128.955,3.421 C129.940,4.366 130.702,5.638 131.243,7.238 C131.783,8.838 132.054,10.833 132.054,13.223 C132.054,17.349 131.185,20.558 129.448,22.852 C127.711,25.146 124.892,26.293 120.993,26.293 ZM123.454,9.413 C122.739,8.676 121.784,8.308 120.588,8.308 L119.140,8.308 L119.140,18.775 L120.472,18.775 C120.973,18.775 121.466,18.707 121.949,18.571 C122.431,18.436 122.865,18.165 123.252,17.757 C123.637,17.351 123.946,16.779 124.178,16.042 C124.410,15.306 124.526,14.356 124.526,13.192 C124.526,11.410 124.168,10.150 123.454,9.413 ZM98.873,33.174 L92.967,33.174 L91.751,41.039 L83.412,41.039 L91.056,0.790 L100.668,0.790 L108.370,41.039 L100.089,41.039 L98.873,33.174 ZM96.962,19.353 L96.094,11.199 L95.746,11.199 L94.878,19.353 L94.067,25.772 L97.715,25.772 L96.962,19.353 ZM72.757,24.384 L67.719,24.384 L67.719,41.039 L59.844,41.039 L59.844,0.790 L67.719,0.790 L67.719,16.751 L72.757,16.751 L72.757,0.790 L80.633,0.790 L80.633,41.039 L72.757,41.039 L72.757,24.384 ZM43.685,14.495 C43.992,14.881 44.444,15.257 45.039,15.623 C45.635,15.990 46.471,16.385 47.547,16.808 C49.391,17.541 50.852,18.312 51.929,19.122 C53.004,19.931 53.821,20.819 54.379,21.782 C54.936,22.746 55.301,23.835 55.474,25.049 C55.646,26.264 55.733,27.642 55.733,29.184 C55.733,31.035 55.568,32.712 55.241,34.215 C54.912,35.719 54.352,37.001 53.562,38.061 C52.770,39.122 51.699,39.940 50.348,40.519 C48.996,41.097 47.298,41.386 45.252,41.386 C43.399,41.386 41.807,41.114 40.475,40.570 C39.143,40.026 38.062,39.279 37.232,38.326 C36.401,37.375 35.793,36.269 35.408,35.008 C35.021,33.747 34.829,32.403 34.829,30.977 L42.762,29.473 C42.838,30.939 43.058,32.038 43.421,32.769 C43.783,33.502 44.460,33.868 45.454,33.868 C46.026,33.868 46.474,33.734 46.799,33.464 C47.123,33.195 47.372,32.849 47.544,32.425 C47.716,32.002 47.830,31.502 47.888,30.924 C47.945,30.347 47.974,29.769 47.974,29.192 C47.974,28.384 47.916,27.710 47.800,27.172 C47.684,26.633 47.481,26.171 47.192,25.786 C46.902,25.402 46.506,25.065 46.005,24.776 C45.503,24.487 44.885,24.189 44.152,23.881 C42.183,23.073 40.600,22.235 39.403,21.370 C38.206,20.504 37.290,19.580 36.653,18.598 C36.016,17.617 35.600,16.578 35.408,15.481 C35.214,14.384 35.118,13.181 35.118,11.873 C35.118,10.219 35.311,8.689 35.697,7.284 C36.083,5.880 36.691,4.677 37.521,3.676 C38.351,2.675 39.432,1.887 40.764,1.309 C42.096,0.732 43.708,0.443 45.599,0.443 C47.606,0.443 49.267,0.761 50.579,1.397 C51.891,2.033 52.925,2.843 53.677,3.826 C54.430,4.809 54.960,5.899 55.270,7.093 C55.579,8.289 55.733,9.445 55.733,10.563 L47.974,12.240 C47.974,11.662 47.945,11.122 47.888,10.621 C47.830,10.120 47.706,9.667 47.516,9.262 C47.325,8.857 47.067,8.539 46.743,8.308 C46.418,8.076 45.969,7.961 45.398,7.961 C44.863,7.961 44.443,8.086 44.138,8.336 C43.832,8.588 43.594,8.896 43.423,9.262 C43.251,9.629 43.137,10.042 43.080,10.505 C43.022,10.968 42.994,11.411 42.994,11.835 C42.994,12.375 43.032,12.857 43.109,13.281 C43.185,13.706 43.377,14.110 43.685,14.495 ZM13.982,21.608 L31.123,21.608 L31.123,28.548 L13.982,28.548 L13.982,21.608 ZM0.895,12.471 L8.771,12.471 L8.771,41.039 L0.895,41.039 L0.895,12.471 ZM0.895,0.790 L8.771,0.790 L8.771,8.308 L0.895,8.308 L0.895,0.790 Z"/>
</svg>
