<!-- Generator: Adobe Illustrator 20.1.0, SVG Export Plug-In  -->
<svg version="1.1"
	 xmlns="http://www.w3.org/2000/svg" xmlns:xlink="http://www.w3.org/1999/xlink" xmlns:a="http://ns.adobe.com/AdobeSVGViewerExtensions/3.0/"
	 x="0px" y="0px" width="650.9px" height="851.5px" viewBox="0 0 650.9 851.5" style="enable-background:new 0 0 650.9 851.5;"
	 xml:space="preserve">
<style type="text/css">
	.st0{fill:none;stroke:url(#SVGID_1_);stroke-width:2.5;stroke-miterlimit:10;}
	.st1{fill:none;stroke:url(#SVGID_2_);stroke-width:2.5;stroke-miterlimit:10;}
	.st2{fill:none;stroke:url(#SVGID_3_);stroke-width:2.5;stroke-miterlimit:10;}
	.st3{fill:none;stroke:url(#SVGID_4_);stroke-width:2.5;stroke-miterlimit:10;}
	.st4{fill:none;stroke:url(#SVGID_5_);stroke-width:2.5;stroke-miterlimit:10;}
	.st5{fill:none;stroke:url(#SVGID_6_);stroke-width:2.5;stroke-miterlimit:10;}
	.st6{fill:none;stroke:url(#SVGID_7_);stroke-width:2.5;stroke-miterlimit:10;}
	.st7{fill:none;stroke:url(#SVGID_8_);stroke-width:2.5;stroke-miterlimit:10;}
	.st8{fill:none;stroke:url(#SVGID_9_);stroke-width:2.5;stroke-miterlimit:10;}
	.st9{fill:none;stroke:url(#SVGID_10_);stroke-width:2.5;stroke-miterlimit:10;}
	.st10{fill:none;stroke:url(#SVGID_11_);stroke-width:2.5;stroke-miterlimit:10;}
	.st11{fill:none;stroke:url(#SVGID_12_);stroke-width:2.5;stroke-miterlimit:10;}
	.st12{fill:none;stroke:url(#SVGID_13_);stroke-width:2.5;stroke-miterlimit:10;}
	.st13{fill:none;stroke:url(#SVGID_14_);stroke-width:2.5;stroke-miterlimit:10;}
	.st14{fill:none;stroke:url(#SVGID_15_);stroke-width:2.5;stroke-miterlimit:10;}
	.st15{fill:none;stroke:url(#SVGID_16_);stroke-width:2.5;stroke-miterlimit:10;}
	.st16{fill:none;stroke:url(#SVGID_17_);stroke-width:2.5;stroke-miterlimit:10;}
	.st17{opacity:0.7;fill:none;stroke:url(#SVGID_18_);stroke-width:1.827;stroke-miterlimit:10;}
	.st18{opacity:0.7;fill:none;stroke:url(#SVGID_19_);stroke-width:1.9325;stroke-miterlimit:10;}
	.st19{opacity:0.7;fill:none;stroke:url(#SVGID_20_);stroke-width:1.9325;stroke-miterlimit:10;}
	.st20{opacity:0.7;fill:none;stroke:url(#SVGID_21_);stroke-width:2;stroke-miterlimit:10;}
	.st21{opacity:0.7;fill:none;stroke:url(#SVGID_22_);stroke-width:2.1439;stroke-miterlimit:10;}
	.st22{opacity:0.7;fill:none;stroke:url(#SVGID_23_);stroke-width:2;stroke-miterlimit:10;}
	.st23{opacity:0.7;fill:none;stroke:url(#SVGID_24_);stroke-width:2.098;stroke-miterlimit:10;}
	.st24{opacity:0.7;fill:none;stroke:url(#SVGID_25_);stroke-width:2.2168;stroke-miterlimit:10;}
	.st25{opacity:0.7;fill:none;stroke:url(#SVGID_26_);stroke-width:2.1763;stroke-miterlimit:10;}
	.st26{fill:none;stroke:url(#SVGID_27_);stroke-width:2.5;stroke-miterlimit:10;}
</style>
<defs>
</defs>
<linearGradient id="SVGID_1_" gradientUnits="userSpaceOnUse" x1="72.2916" y1="652.9382" x2="72.2916" y2="228.5055">
	<stop  offset="0" style="stop-color:#FFFFFF;stop-opacity:0"/>
	<stop  offset="0.5118" style="stop-color:#FFFFFF"/>
	<stop  offset="0.9944" style="stop-color:#FFFFFF;stop-opacity:1.138508e-02"/>
	<stop  offset="1" style="stop-color:#FFFFFF;stop-opacity:0"/>
</linearGradient>
<path class="stroke st0" d="M90.8,652.5c-23.9-68.3-37-141.8-37-218.3c0-71.7,11.4-140.7,32.6-205.3"/>
<!-- <path class="stroke st0" d="32.6-205.3,11.4-140.7,652.5c-23.9-68.3-37-141.8-37-218.3c0-71.7,M90.8"/> -->
<linearGradient id="SVGID_2_" gradientUnits="userSpaceOnUse" x1="388.648" y1="433.0839" x2="640.0712" y2="684.507" gradientTransform="matrix(0.9962 8.670000e-02 -8.670000e-02 0.9962 49.8755 -42.81)">
	<stop  offset="0" style="stop-color:#FFFFFF;stop-opacity:0"/>
	<stop  offset="0.5249" style="stop-color:#FFFFFF"/>
	<stop  offset="1" style="stop-color:#FFFFFF;stop-opacity:0"/>
</linearGradient>
<path class="stroke st1" d="M599.7,718.4c-50.2-52.2-92.7-113.5-124.6-183.1c-20.6-44.9-35.7-91-45.6-137.4"/>
<linearGradient id="SVGID_3_" gradientUnits="userSpaceOnUse" x1="38.4663" y1="244.565" x2="293.9853" y2="97.041">
	<stop  offset="0" style="stop-color:#FFFFFF;stop-opacity:0"/>
	<stop  offset="0.5249" style="stop-color:#FFFFFF"/>
	<stop  offset="1" style="stop-color:#FFFFFF;stop-opacity:0"/>
</linearGradient>
<path class="stroke st2" d="M95.2,340.9c6.2-53.5,19.1-107.2,39.1-159.9c25.5-67,60.8-127.4,103.5-180.2"/>
<linearGradient id="SVGID_4_" gradientUnits="userSpaceOnUse" x1="7.7809" y1="457.7748" x2="609.5912" y2="805.2302">
	<stop  offset="0" style="stop-color:#FFFFFF;stop-opacity:0"/>
	<stop  offset="0.5249" style="stop-color:#FFFFFF"/>
	<stop  offset="1" style="stop-color:#FFFFFF;stop-opacity:0"/>
</linearGradient>
<path class="stroke st3" d="M650.2,732.7c-134.4,85.7-316,77.7-447.1-31.8C97.4,612.6,50.9,480.2,68.5,354.8"/>
<linearGradient id="SVGID_5_" gradientUnits="userSpaceOnUse" x1="285.4337" y1="834.5236" x2="586.0497" y2="533.9075">
	<stop  offset="0" style="stop-color:#FFFFFF;stop-opacity:0"/>
	<stop  offset="0.5249" style="stop-color:#FFFFFF"/>
	<stop  offset="1" style="stop-color:#FFFFFF;stop-opacity:0"/>
</linearGradient>
<path class="stroke st4" d="M597.3,546.3c-10.9,93.3-58.5,174.7-137.6,218.1c-71.5,39.2-155.3,40.1-233.1,9.7"/>
<linearGradient id="SVGID_6_" gradientUnits="userSpaceOnUse" x1="237.228" y1="477.521" x2="507.1151" y2="477.521">
	<stop  offset="0" style="stop-color:#FFFFFF;stop-opacity:0"/>
	<stop  offset="0.5249" style="stop-color:#FFFFFF"/>
	<stop  offset="1" style="stop-color:#FFFFFF;stop-opacity:0"/>
</linearGradient>
<path class="stroke st5" d="M237.9,501.8c44.3-27.8,95.4-45,150.4-48c41.2-2.3,81.2,3.6,118.4,16.3"/>
<linearGradient id="SVGID_7_" gradientUnits="userSpaceOnUse" x1="413.4594" y1="460.0658" x2="556.55" y2="460.0658" gradientTransform="matrix(0.265 0.9643 -0.9643 0.265 794.524 -132.9347)">
	<stop  offset="0" style="stop-color:#FFFFFF;stop-opacity:0"/>
	<stop  offset="0.5249" style="stop-color:#FFFFFF"/>
	<stop  offset="1" style="stop-color:#FFFFFF;stop-opacity:0"/>
</linearGradient>
<path class="stroke st6" d="M451.6,390.5c17.2,24.4,31,51.5,40.9,81c5.8,17.3,10,34.7,12.6,52.1"/>
<linearGradient id="SVGID_8_" gradientUnits="userSpaceOnUse" x1="419.0711" y1="484.4397" x2="562.1678" y2="484.4397" gradientTransform="matrix(-0.56 0.8285 -0.8285 -0.56 1148.686 347.5022)">
	<stop  offset="0" style="stop-color:#FFFFFF;stop-opacity:0"/>
	<stop  offset="0.5249" style="stop-color:#FFFFFF"/>
	<stop  offset="1" style="stop-color:#FFFFFF;stop-opacity:0"/>
</linearGradient>
<path class="stroke st7" d="M504.7,418.6c-7.4,28.9-18.9,57.1-34.9,83.7c-9.4,15.6-19.9,30.1-31.4,43.5"/>
<linearGradient id="SVGID_9_" gradientUnits="userSpaceOnUse" x1="437.8132" y1="494.5538" x2="580.9129" y2="494.5538" gradientTransform="matrix(0.6427 0.7661 -0.7661 0.6427 507.149 -226.9488)">
	<stop  offset="0" style="stop-color:#FFFFFF;stop-opacity:0"/>
	<stop  offset="0.5249" style="stop-color:#FFFFFF"/>
	<stop  offset="1" style="stop-color:#FFFFFF;stop-opacity:0"/>
</linearGradient>
<path class="stroke st8" d="M402.8,432.6c25.8,15,49.7,33.9,70.9,56.5c12.4,13.3,23.5,27.4,33.2,42.1"/>
<linearGradient id="SVGID_10_" gradientUnits="userSpaceOnUse" x1="322.9235" y1="451.4677" x2="135.0226" y2="451.4677">
	<stop  offset="0" style="stop-color:#FFFFFF;stop-opacity:0"/>
	<stop  offset="0.5249" style="stop-color:#FFFFFF"/>
	<stop  offset="1" style="stop-color:#FFFFFF;stop-opacity:0"/>
</linearGradient>
<path class="stroke st9" d="M322.3,433.2c-33.5,17.7-70.5,29.5-110,34.2c-26.2,3.1-52,2.8-77.2-0.5"/>
<linearGradient id="SVGID_11_" gradientUnits="userSpaceOnUse" x1="540.8913" y1="428.0296" x2="270.7987" y2="428.0296">
	<stop  offset="0" style="stop-color:#FFFFFF;stop-opacity:0"/>
	<stop  offset="0.5249" style="stop-color:#FFFFFF"/>
	<stop  offset="1" style="stop-color:#FFFFFF;stop-opacity:0"/>
</linearGradient>
<path class="stroke st10" d="M271.2,421.9c49.5-17.1,103.1-22.2,157.3-12.8c40.7,7.1,78.2,21.8,111.7,42.6"/>
<linearGradient id="SVGID_12_" gradientUnits="userSpaceOnUse" x1="270.349" y1="554.4824" x2="389.6332" y2="347.876">
	<stop  offset="0" style="stop-color:#FFFFFF;stop-opacity:0"/>
	<stop  offset="0.5249" style="stop-color:#FFFFFF"/>
	<stop  offset="1" style="stop-color:#FFFFFF;stop-opacity:0"/>
</linearGradient>
<path class="stroke st11" d="M214.4,522.1c28.7-43.7,68-80.6,116.8-106.2c36.5-19.2,75.3-30.5,114.5-34.5"/>
<linearGradient id="SVGID_13_" gradientUnits="userSpaceOnUse" x1="214.6437" y1="509.1551" x2="500.2721" y2="794.7836">
	<stop  offset="0" style="stop-color:#FFFFFF;stop-opacity:0"/>
	<stop  offset="0.5249" style="stop-color:#FFFFFF"/>
	<stop  offset="1" style="stop-color:#FFFFFF;stop-opacity:0"/>
</linearGradient>
<path class="stroke st12" d="M444.4,850.6c-38.6-38.2-73.7-84.4-102.5-137.3c-47.2-86.6-70.2-177.4-70.5-259.6"/>
<linearGradient id="SVGID_14_" gradientUnits="userSpaceOnUse" x1="552.4051" y1="763.0331" x2="424.6589" y2="541.7702" gradientTransform="matrix(0.9997 -2.430000e-02 2.430000e-02 0.9997 -15.7004 12.428)">
	<stop  offset="0" style="stop-color:#FFFFFF;stop-opacity:0"/>
	<stop  offset="0.4846" style="stop-color:#FFFFFF"/>
	<stop  offset="0.5574" style="stop-color:#FFFFFF;stop-opacity:0.8587"/>
	<stop  offset="1" style="stop-color:#FFFFFF;stop-opacity:0"/>
</linearGradient>
<path class="stroke st13" d="M490.4,502.1c67,133.3,20.4,250-4.8,300.9"/>
<linearGradient id="SVGID_15_" gradientUnits="userSpaceOnUse" x1="104.8727" y1="290.5432" x2="348.2014" y2="533.872">
	<stop  offset="0" style="stop-color:#FFFFFF;stop-opacity:0"/>
	<stop  offset="0.5249" style="stop-color:#FFFFFF"/>
	<stop  offset="1" style="stop-color:#FFFFFF;stop-opacity:0"/>
</linearGradient>
<path class="stroke st14" d="M335.3,546.3c-39.6-20.3-76.9-48.4-109.3-84.1c-53.1-58.4-84.7-127.8-94.8-196.9"/>
<linearGradient id="SVGID_16_" gradientUnits="userSpaceOnUse" x1="12.4339" y1="526.1893" x2="192.0932" y2="526.1893">
	<stop  offset="0" style="stop-color:#FFFFFF;stop-opacity:0"/>
	<stop  offset="0.5249" style="stop-color:#FFFFFF"/>
	<stop  offset="1" style="stop-color:#FFFFFF;stop-opacity:0"/>
</linearGradient>
<path class="stroke st15" d="M191.2,696.9c-90-92-153.4-210.1-177.5-342"/>
<linearGradient id="SVGID_17_" gradientUnits="userSpaceOnUse" x1="-46.5648" y1="178.8649" x2="126.4642" y2="278.7633">
	<stop  offset="0" style="stop-color:#FFFFFF;stop-opacity:0"/>
	<stop  offset="0.5249" style="stop-color:#FFFFFF"/>
	<stop  offset="1" style="stop-color:#FFFFFF;stop-opacity:0"/>
</linearGradient>
<path class="stroke st16" d="M7.5,86.6c41.2,86.2,64.3,182.7,64.3,284.6"/>
<linearGradient id="SVGID_18_" gradientUnits="userSpaceOnUse" x1="128.4355" y1="314.8204" x2="36.624" y2="314.8204" gradientTransform="matrix(1.0217 -0.8238 0.7066 0.7231 -219.6906 157.8688)">
	<stop  offset="0" style="stop-color:#FFFFFF;stop-opacity:0"/>
	<stop  offset="0.5249" style="stop-color:#FFFFFF"/>
	<stop  offset="1" style="stop-color:#FFFFFF;stop-opacity:0"/>
</linearGradient>
<path class="stroke st17" d="M35.1,350.1c16.1-14,33.7-26.9,52.7-38.5c16.7-10.2,33.8-18.9,51.1-26.2"/>
<linearGradient id="SVGID_19_" gradientUnits="userSpaceOnUse" x1="124.4219" y1="328.5973" x2="3.4115" y2="328.5973" gradientTransform="matrix(1.1537 -0.9042 0.7296 0.709 -237.9575 168.1617)">
	<stop  offset="0" style="stop-color:#FFFFFF;stop-opacity:0"/>
	<stop  offset="0.5249" style="stop-color:#FFFFFF"/>
	<stop  offset="1" style="stop-color:#FFFFFF;stop-opacity:0"/>
</linearGradient>
<path class="stroke st18" d="M3.1,395.1c26-26.2,56.3-50.3,90.5-71.1c18.7-11.4,37.7-21.3,56.9-29.7"/>
<linearGradient id="SVGID_20_" gradientUnits="userSpaceOnUse" x1="119.4914" y1="341.2326" x2="-1.5194" y2="341.2326" gradientTransform="matrix(1.1538 -0.9042 0.7297 0.709 -237.1549 168.6011)">
	<stop  offset="0" style="stop-color:#FFFFFF;stop-opacity:0"/>
	<stop  offset="0.5249" style="stop-color:#FFFFFF"/>
	<stop  offset="1" style="stop-color:#FFFFFF;stop-opacity:0"/>
</linearGradient>
<path class="stroke st19" d="M7.4,409c26-26.2,56.3-50.3,90.5-71.1c18.7-11.4,37.7-21.3,56.9-29.7"/>
<linearGradient id="SVGID_21_" gradientUnits="userSpaceOnUse" x1="116.3992" y1="354.5098" x2="-4.6308" y2="354.5098" gradientTransform="matrix(1.2421 -0.958 0.7451 0.6996 -249.2333 175.5865)">
	<stop  offset="0" style="stop-color:#FFFFFF;stop-opacity:0"/>
	<stop  offset="0.5249" style="stop-color:#FFFFFF"/>
	<stop  offset="1" style="stop-color:#FFFFFF;stop-opacity:0"/>
</linearGradient>
<path class="stroke st20" d="M6.5,425.1c28.2-27.6,60.8-53.1,97.4-75.4c20-12.2,40.3-22.9,60.8-32.1"/>
<linearGradient id="SVGID_22_" gradientUnits="userSpaceOnUse" x1="115.2064" y1="367.3893" x2="-5.8621" y2="367.3893" gradientTransform="matrix(1.4407 -1.0789 0.7798 0.6785 -274.5621 191.5826)">
	<stop  offset="0" style="stop-color:#FFFFFF;stop-opacity:0"/>
	<stop  offset="0.5249" style="stop-color:#FFFFFF"/>
	<stop  offset="1" style="stop-color:#FFFFFF;stop-opacity:0"/>
</linearGradient>
<path class="stroke st21" d="M0.7,444.3c33.1-30.5,70.9-59.3,113-84.9c23-14,46.2-26.5,69.5-37.4"/>
<linearGradient id="SVGID_23_" gradientUnits="userSpaceOnUse" x1="110.5066" y1="380.1884" x2="-10.5233" y2="380.1884" gradientTransform="matrix(1.2421 -0.958 0.7451 0.6996 -249.2333 175.5865)">
	<stop  offset="0" style="stop-color:#FFFFFF;stop-opacity:0"/>
	<stop  offset="0.5249" style="stop-color:#FFFFFF"/>
	<stop  offset="1" style="stop-color:#FFFFFF;stop-opacity:0"/>
</linearGradient>
<path class="stroke st22" d="M18.3,448.8c28.2-27.6,60.8-53.1,97.4-75.4c20-12.2,40.3-22.9,60.8-32.1"/>
<linearGradient id="SVGID_24_" gradientUnits="userSpaceOnUse" x1="108.1535" y1="394.6577" x2="-12.9067" y2="394.6577" gradientTransform="matrix(1.3758 -1.0394 0.7685 0.6854 -266.2255 186.475)">
	<stop  offset="0" style="stop-color:#FFFFFF;stop-opacity:0"/>
	<stop  offset="0.5249" style="stop-color:#FFFFFF"/>
	<stop  offset="1" style="stop-color:#FFFFFF;stop-opacity:0"/>
</linearGradient>
<path class="stroke st23" d="M16.6,467.5C48,438,84.2,410.3,124.5,385.8c22-13.4,44.3-25.3,66.7-35.7"/>
<linearGradient id="SVGID_25_" gradientUnits="userSpaceOnUse" x1="102.9038" y1="411.1836" x2="-18.1842" y2="411.1836" gradientTransform="matrix(1.5464 -1.1433 0.7983 0.6672 -286.6163 198.4312)">
	<stop  offset="0" style="stop-color:#FFFFFF;stop-opacity:0"/>
	<stop  offset="0.5249" style="stop-color:#FFFFFF"/>
	<stop  offset="1" style="stop-color:#FFFFFF;stop-opacity:0"/>
</linearGradient>
<path class="stroke st24" d="M10.7,490.7c35.7-32.1,76.3-62.5,121.3-89.9c24.6-15,49.4-28.4,74.2-40.2"/>
<linearGradient id="SVGID_26_" gradientUnits="userSpaceOnUse" x1="99.4954" y1="426.6351" x2="-21.5802" y2="426.6351" gradientTransform="matrix(1.4873 -1.1073 0.7879 0.6735 -279.4656 193.8886)">
	<stop  offset="0" style="stop-color:#FFFFFF;stop-opacity:0"/>
	<stop  offset="0.5249" style="stop-color:#FFFFFF"/>
	<stop  offset="1" style="stop-color:#FFFFFF;stop-opacity:0"/>
</linearGradient>
<path class="stroke st25" d="M21.8,502.3c34.2-31.2,73.3-60.7,116.6-87.1c23.7-14.4,47.6-27.3,71.6-38.7"/>
<linearGradient id="SVGID_27_" gradientUnits="userSpaceOnUse" x1="355.7554" y1="305.692" x2="94.4737" y2="305.692" gradientTransform="matrix(-0.5318 -0.925 0.8572 -0.519 -2.4551 681.3754)">
	<stop  offset="0" style="stop-color:#FFFFFF;stop-opacity:0"/>
	<stop  offset="0.5249" style="stop-color:#FFFFFF"/>
	<stop  offset="1" style="stop-color:#FFFFFF;stop-opacity:0"/>
</linearGradient>
<path class="stroke st26" d="M228.8,422.4c-29.8-5.9-67.8-24.7-84.8-50.8c-13.8-21.3-25.8-43.2-33.8-68.4c-17.4-55.1-17.4-80.6-17.4-122.3"
	/>
</svg>
