<!-- Generator: Adobe Illustrator 20.1.0, SVG Export Plug-In  -->
<svg version="1.1"
	 xmlns="http://www.w3.org/2000/svg" xmlns:xlink="http://www.w3.org/1999/xlink" xmlns:a="http://ns.adobe.com/AdobeSVGViewerExtensions/3.0/"
	 x="0px" y="0px" width="369.5px" height="181.5px" viewBox="0 0 369.5 181.5" style="enable-background:new 0 0 369.5 181.5;"
	 xml:space="preserve">
<style type="text/css">
	.st0{fill:#FFFFFF;}
	.st1{fill:#FFFFFF;}
	.st2{fill:#FFFFFF;}
	.st3{fill:#FFFFFF;}
	.st4{fill:#FFFFFF;}
	.st5{fill:#FFFFFF;}
	.st6{fill:#FFFFFF;}
	.st7{fill:#FFFFFF;}
	.st8{fill:#FFFFFF;}
	.st9{fill:#FFFFFF;}
	.st10{fill:#FFFFFF;}
</style>
<defs>
</defs>
<g>
	<path class="stroke st0" d="M146.5,0c2.4,0.9,2.7,1.5,2.9,4.2c0.2,2.1-0.4,4.1-0.7,6.1c-0.4,2.2-0.9,4.4-1.4,6.6c-0.1,0.6-0.3,1.2-0.5,1.8
		c-1.5,3.6-3,7.2-4.4,10.8c-4,10.1-8,20.3-13.1,30c-1.9,3.7-4,7.2-5.8,11c-0.7,1.4-0.8,3-1,4.6c-0.5,4-1,8.1-1.5,12.1
		c0,0.1,0,0.2,0.1,0.3c1.1-1.4,2.1-2.8,3.3-4.2c1.5-1.8,3.1-3.3,5.4-4c1.9-0.5,3,0.2,3.3,2.1c0.5,3.4-0.2,6.8-0.5,10.2
		c-0.2,2.8-0.2,5.7-0.3,8.6c0,0.3,0.1,0.7,0.2,1c0.2,0.7,0.7,1.1,1.4,0.6c1.2-0.9,2.6-1.7,3.4-2.8c2.8-4.1,5.6-8.2,8-12.5
		c1.9-3.4,3.4-7,5-10.5c1-2.1,2.3-4,4.2-5.4c1.6-1.2,3.4-1.2,5.1-0.7c1.4,0.4,2.1,2.2,1.8,4c-0.2,0.8-0.4,1.6-0.7,2.7
		c0.7-0.7,1.2-1.1,1.7-1.5c1.1-0.9,2.4-0.4,2.5,1.1c0.1,0.9,0,1.8-0.1,2.7c-0.2,2.1-0.2,4.1,0.7,6.1c0.5,1.1,1.2,1.4,2.1,0.6
		c1.1-1,2.2-2.1,3.2-3.2c3.6-4.4,7-9,10.7-13.4c1.9-2.2,2.6-4.7,3.1-7.5c0.2-1.1,0.8-1.7,1.8-1.7c0.9,0,1.2,0.7,1.5,1.4
		c0.5,1.4,0.5,2.7,0.1,4.1c-0.3,1.1-0.2,2.3-0.3,3.4c-0.3,2.9-0.6,5.9-0.9,8.8c0,0.1,0,0.2,0.1,0.5c0.5-1.2,1.1-2.2,1-3.4
		c0-0.1,0-0.2,0.1-0.3c0.7-1.1,1.4-2.2,2-3.3c0.5-1,1-2.1,1.4-3.1c0.1-0.1,0-0.4,0.1-0.5c2-1.1,2.4-3.5,4-4.9c0.6-0.5,1-1.2,1.4-1.8
		c-3,1.5-4.3,4.7-6.3,7.1c0.7-1.5,1-3.1,2.4-4.2c0.7-0.6,1.1-1.5,1.7-2.3c2-2.7,4.7-3.6,7.9-3.4c0.2,0,0.4,0.2,0.8,0.4
		c-0.5,0.3-0.7,0.4-1,0.5c0,0.1,0,0.1,0,0.2c0.8,0,1.6-0.2,2.2,0.1c0.7,0.3,1.6,0.9,1.7,1.5c1.2,4.4,0.6,8.6-1.3,12.6
		c-1,2-2,4.1-3.2,6c-0.7,1.1-1.6,2-2.6,3c-0.8,0.8-2.7,0.4-3.7-0.3c-1-0.7-1.7-1.4-1.8-2.6c-0.1-0.6,0-1.2,0-1.8
		c0.1,0,0.3-0.1,0.4-0.1c0.2,0.4,0.4,0.7,0.6,1.1c0.3,0.9,0.7,1.1,1.5,0.4c0.4-0.3,0.8-0.7,1-1.2c1.7-2.9,3.3-5.9,4.3-9.1
		c0.4-1.5,0.6-3,0.8-4.6c0.1-0.7-0.1-1.5-0.3-2.1c-0.5-1.7-1.4-1.9-2.6-0.6c-3.4,3.6-6.3,7.6-8.2,12.3c-1,2.4-2.1,4.8-3.1,7.3
		c-0.8,1.9-1.5,3.9-2.1,5.9c-0.1,0.3,0.2,0.7,0.2,1c-0.1,0.6-0.3,1.2-0.5,1.8c-0.1,0.2-0.3,0.3-0.3,0.5c-0.2,1.6-0.4,3.2-0.6,4.8
		c-0.3,1.9-0.6,3.7-0.9,5.6c0,0.1-0.1,0.2-0.1,0.3c0.6,2.3,0,4.6-0.3,6.8c-0.1,0.9-0.1,1.9-0.3,2.9c-0.1,0.5-0.5,1-0.8,1.5
		c1,1.4,0.3,2.8-0.4,4.4c0.6-0.1,1-0.1,1.4-0.2c2.8-1.2,5.6-2.6,8.4-3.8c2.8-1.2,5.7-2.4,8.7-3.2c1.7-0.4,3-1.5,4.6-1.9
		c1-0.3,1.9-0.5,2.9-0.8c0.4-0.1,0.7-0.3,1-0.4c3.6-1.6,7.1-3.4,10.7-4.8c1.7-0.7,3.6-0.7,5.3-1.1c0.7-0.1,1.3-0.5,1.9-0.7
		c0-0.1-0.1-0.2-0.1-0.3c-0.4,0.1-0.8,0.2-1.1,0.3c0-0.1-0.1-0.1-0.1-0.2c0.3-0.2,0.7-0.6,1-0.7c2.5-0.8,5-1.5,7.4-2.4
		c2.1-0.8,4.1-1.8,6.2-2.7c0.4-0.1,0.8-0.1,1.2-0.1c0.7-0.1,1.4-0.1,2-0.3c1.2-0.3,2.4-0.5,3.5-1c1.2-0.6,2.5-0.9,3.8-1.3
		c1.3-0.4,2.6-1.1,3.9-1.6c0.7-0.3,1.5-0.5,2.3-0.7c0.1,0,0.3-0.1,0.4-0.1c2.4-1,4.8-2,7.2-3c1.8-0.7,3.6-1.4,5.5-2
		c2.6-0.9,5.1-1.9,7.7-2.8c4.7-1.5,9.5-2.8,14.2-4.2c0.4-0.1,0.9,0,1.3-0.1c0.6-0.1,1.2-0.1,1.6-0.4c2.1-1.7,4.7-2.1,7.2-2.8
		c1.9-0.6,3.8-1.1,5.8-1.5c7-1.7,13.9-3.4,20.9-5.1c0.5-0.1,1-0.1,1.5-0.1c0.7-0.1,1.5,0.2,1.9-0.8c0.1-0.3,0.9-0.3,1.4-0.3
		c1.6-0.3,3.2-0.6,5-0.5c1.4,0.1,2.9-0.6,4.4-1c0.3-0.1,0.5-0.3,0.7-0.3c4-0.3,8-0.6,12-0.8c3.1-0.1,6.2,0.6,9.1,1.6
		c1.3,0.5,2.7,1.3,3.7,2.3c1.4,1.4,1.4,3.2,0.1,4.7c-1,1.1-2.1,2.2-3.3,3.1c-2.4,1.9-5.1,3.3-8,4.2c-2.1,0.7-3.8,1.8-5.7,2.9
		c-2.1,1.2-4.2,2.4-6.4,3.5c-2.1,1-4.3,1.9-6.4,2.9c-4.6,2.1-9,4.3-13.7,6.2c-3.2,1.3-6.2,3.1-9.4,4.4c-2.2,0.8-4.4,1.7-6.6,2.3
		c-1.2,0.3-2,1.2-3,1.7c-1,0.5-2.1,1-3.2,1.1c-3.2,0.2-2.8,0.5-4.5,1.7c-0.1,0.1-0.3,0.1-0.6,0.3c0.2-0.4,0.3-0.6,0.5-1
		c-0.6,0.3-1.1,0.5-1.5,0.8c-1,0.7-1.9,1.5-3,2c-4.8,2-9.6,4-14.4,5.9c-3,1.2-6,2.4-9.1,3.1c-2.9,0.6-5.4,2.1-8,3.3
		c-1.7,0.8-3.4,1.5-5.1,2.2c-0.6,0.3-1.4,0.3-2.1,0.5c-2.8,0.8-5.2,2.5-7.9,3.7c-2,0.9-4.1,1.7-6.2,2.4c0.2-0.1,0.4-0.3,0.7-0.4
		c-0.2,0-0.3-0.1-0.3-0.1c-1.4,0.4-3,0.3-3.9,1.8c0,0.1-0.2,0.1-0.3,0.1c-1.6-0.2-2.8,0.9-4.2,1.5c-3,1.4-6,2.9-9,4.3
		c-2.7,1.2-5.4,2.2-8.1,3.3c-0.3,0.1-0.7,0.1-1.1,0c0.2-0.1,0.4-0.3,0.7-0.5c-0.2,0-0.3,0-0.4,0c-1,0.5-2,1.1-3,1.6
		c-0.9,0.4-1.8,0.8-2.6,1.1c-2.2,0.9-4.3,2-6.5,2.8c-4.3,1.7-8.6,3.3-12.9,4.9c-1.1,0.4-2.2,1-3.2,1.6c-2,1-4,2.1-6.1,3.1
		c0-0.3,0-0.5,0-0.9c-1.1,0.6-2,1.2-3,1.7c-1.8,0.9-3.7,1.6-5.5,2.5c-0.6,0.3-1.1,0.6-1.7,0.9c-1.5,0.9-3.3,1.2-4.9,1.8
		c-2.8,1.2-5.5,2.7-8.3,4.1c-1.1,0.6-2.3,1.1-3.5,1.6c-0.2,0.1-0.6,0.2-0.7,0.1c-0.7-1-1.3-0.2-1.9,0.1c-0.7,0.3-1.3,0.7-2,1.1
		c0,0.1,0.1,0.2,0.1,0.3c0.4-0.1,0.8-0.2,1.2-0.3c0,0.1,0.1,0.2,0.1,0.3c-0.4,0.2-0.8,0.5-1.2,0.6c-1.5,0.7-3,1.6-4.6,1.8
		c-1.7,0.2-3,1.1-4.5,1.6c-1.2,0.4-2.5,0.8-3.6,1.5c-1.8,1.1-3.5,2.4-5.3,3.6c-0.2,0.1-0.4,0.2-0.5,0.2c-1.2,0.1-2,0.9-2.8,1.8
		c1.9,0.3,3.3-0.4,4.9-1.1c2.4-1,5-1.7,7.5-2.6c1.8-0.6,3.5-1.2,5.4-1.5c-0.5,0.2-1.1,0.4-1.8,0.7c1.5,0.3,3.5-0.4,4.3-1.4
		c0.1-0.1,0.2-0.2,0.3-0.2c2.8-1.2,5.5-2.7,8.6-3.2c2.2-0.4,4.3-1.5,6.4-2.3c2.3-0.9,4.6-1.9,6.9-2.8c0.7-0.3,1.6-0.1,2.3-0.3
		c1.9-0.6,3.7-1.5,5.5-2.1c1-0.4,2.1-0.5,3.2-0.8c0.3-0.1,0.6-0.2,0.9-0.3c3.4-1.3,6.7-2.6,10.1-3.8c3.5-1.3,7-2.4,10.5-3.7
		c2.8-1.1,5.5-2.4,8.3-3.6c1.4-0.6,2.7-1.2,4.2-1.7c0.9-0.3,1.9-0.4,2.9-0.7c0.8-0.2,1.6-0.6,2.4-0.9c0.7-0.2,1.7,0.2,2.3-0.5
		c0,0,0.5,0.3,0.9,0.5c0.3-0.2,0.8-0.4,1.5-0.8c-0.5-0.2-0.8-0.3-1.2-0.4c3.8-1.4,7.5-2.8,11.2-4.2c-0.1,0.2-0.1,0.4-0.2,0.5
		c0.2-0.1,0.4-0.1,0.5-0.1c3.8-1.6,7.7-3,11.6-4.1c2-0.5,3.9-1.2,5.8-1.9c0.5-0.2,0.9-0.6,1.3-0.8c0.3-0.1,0.7-0.1,1-0.2
		c1.8-0.6,3.7-1.1,5.5-1.7c0.2-0.1,0.4-0.1,0.6,0c0.1,0,0.3,0.3,0.4,0.2c3.5-1,7-2,10.5-3c0.9-0.3,1.7-0.8,2.6-1.1
		c0.5-0.2,1.2-0.1,1.7,0c1,0.2,1.7-0.1,2.5-0.8c0.6-0.5,1.5-0.6,2.3-0.8c0.6-0.2,1.2-0.2,1.7-0.4c2.1-0.8,4.2-0.9,6.4-1.2
		c0.3,0,0.5-0.1,0.8-0.2c0.5,0,1-0.6,1.6,0.1c0.2,0.2,1.1-0.3,1.6-0.4c0.3-0.1,0.7,0,1,0c0,0.1,0,0.3,0,0.4c-2.2,0.3-4.4,0.7-7,1.1
		c0.4-0.2,0.5-0.3,0.7-0.5c-0.1-0.1-0.1-0.1-0.2-0.1c-2.5,0.9-5,1.8-7.5,2.6c-3.2,1-6.5,1.8-9.7,2.7c-0.9,0.3-1.7,0.5-2.6,1.1
		c-1.1,0.8-2.7,0.8-4.1,1.2c-1.8,0.5-3.6,0.9-5.5,1c-1.7,0.1-3.5,0.9-5,1.8c-1.5,0.8-3,1.3-4.6,1.7c-1.5,0.4-3.1,0.8-4.6,1.2
		c-1.5,0.4-3.1,0.8-4.6,1.3c-0.9,0.3-1.7,0.9-2.5,1.3c-0.6,0.3-1.2,0.4-1.8,0.6c-0.7,0.2-1.4,0.3-2.1,0.4c0,0.1,0,0.2,0.1,0.3
		c0.3,0,0.6-0.1,0.8-0.1c0,0.1,0.1,0.2,0.1,0.3c-1.6,0.5-3.2,1-4.9,1.5c-1,0.3-2,0.6-3,1c-3.7,1.4-7.4,2.8-11.1,4.2
		c-3.2,1.2-6.4,2.4-9.5,3.6c-3.6,1.4-7.1,2.8-10.7,4.1c-2,0.7-4.3,1-6.3,1.8c-2.9,1.1-5.7,2.5-8.6,3.7c-2,0.9-4,1.7-6.2,2.3
		c0.5-0.2,1-0.5,1.5-0.7c-1.1,0.4-2.4,0.1-3.1,1.4c-0.1,0.2-0.4,0.2-0.7,0.3c-1,0.3-2,0.5-3,0.8c-1.3,0.4-2.5,0.8-3.8,1.2
		c-0.2,0.1-0.4,0.3-0.6,0.4c-0.2,0.2-0.5,0.4-0.7,0.5c-2.9,0.5-5.4,1.9-8.1,2.9c-0.2,0.1-0.4-0.1-0.7-0.1c-0.2,0-0.4-0.1-0.6,0
		c-0.3,0.1-0.5,0.1-0.8,0.3c-2.1,1.1-4.4,1.6-6.6,2.2c-0.5,0.1-1.1,0.2-1.3,1c-0.1,0.4-1.2,0.5-1.8,0.8c-1.6,0.6-3.2,1.2-4.8,1.9
		c-1.5,0.6-3,1-4.6,1c-0.4,0-0.9,0.1-1.3,0.2c-3.2,0.9-6.4,2-9.7,2.8c-2,0.5-4.1,0.4-6.4,0.7c0.6-0.6,1.1-0.9,1.5-1.3
		c1.8-2.1,4.3-3.1,6.5-4.8c1.4-1,3.2-1.1,4.8-1.8c1.3-0.6,2.6-1.2,3.4-2.5c0.1-0.1,0.2-0.2,0.4-0.3c4.1-2,8.2-4,12.3-5.9
		c2.7-1.2,5.4-2.3,8.1-3.6c1.6-0.7,3-1.9,4.7-2.3c4.2-1.1,7.8-3.6,11.8-5.2c3.2-1.3,6.5-2.5,9.7-3.8c0.7-0.3,1.3-0.9,2-1.1
		c3.2-1.2,6.4-2.3,9.5-3.5c1.6-0.6,3.1-1.5,4.7-2.3c0.6-0.3,1.3-0.3,1.9-0.6c2.8-1.2,5.6-2.5,8.4-3.7c1.7-0.7,3.4-1.7,5.1-2.1
		c2.2-0.5,4.1-1.8,6.2-2.6c7.5-3,14.9-6.1,22.4-9.1c0.4-0.2,0.9,0,1.3-0.1c0.7-0.2,1.4-0.4,1.9-0.8c3-2.5,6.7-3.3,10.2-4.7
		c8.1-3.2,16.2-6.3,24.2-9.5c5.2-2.1,10.3-4.7,15.6-6.7c5.6-2.1,11.1-4.6,16.7-6.8c3.4-1.3,6.5-3.3,10-4.5c3.5-1.2,6.9-2.6,10.4-4
		c1.5-0.6,3.1-1.2,4.6-1.9c0.5-0.2,0.9-0.7,1.5-1c2.2-1.1,4.3-2.2,6.5-3.3c0.9-0.5,1.9-0.9,2.9-1.2c1.1-0.3,2-1.1,2.9-1.7
		c2.1-1.2,4.2-2.3,6.4-3.1c3.6-1.5,6.2-4.2,9.2-6.5c0.2-0.1,0.3-0.3,0.5-0.5c0.1-0.1,0.1-0.2,0.3-0.6c-0.8-0.5-1.6-1.2-2.5-1.5
		c-1.6-0.6-3.3-0.9-5-1.3c-0.3-0.1-0.4-0.5-0.7-0.5c-0.7-0.1-1.5,0-2.2,0.1c-0.2,0-0.3,0.3-0.5,0.4c-0.3,0.1-0.5,0.2-0.8,0.2
		c-4.1,0.5-8.2,0.9-12.3,1.4c-2.4,0.3-4.9,0.6-7.3,1c-0.4,0-0.7,0.3-1,0.4c-0.4,0.2-0.9,0.3-1.4,0.4c-1,0.2-2.1,0.2-3.1,0.4
		c-2.8,0.5-5.6,0.8-8.2,1.7c-1.7,0.6-3.5,0.8-5.2,1.4c-3.7,1.3-7.4,2.4-11.3,2.9c-1.1,0.1-2.2,0.7-3.3,1.1
		c-7.8,2.4-15.7,4.7-23.5,7.1c-1.5,0.4-2.9,1.1-4.3,1.6c-1,0.3-2,0.5-2.9,0.9c-3.8,1.4-7.6,2.8-11.4,4.1c-0.5,0.2-1,0.2-1.5,0.4
		c-0.4,0.1-0.7,0.4-1,0.6c-0.1,0.1-0.3,0.2-0.4,0.2c-6.2,2.1-12.3,4.4-18.5,6.2c-4.8,1.4-9.2,3.5-13.9,5.2c-1.6,0.6-3.3,0.9-4.9,1.5
		c-0.8,0.3-1.5,0.8-2.3,1.2c-0.3,0.1-0.8,0.7-1.1,0c0,0-0.3,0-0.5,0.1c-0.7,0.4-1.5,0.6-2.1,1.1c-1.4,1.2-3,1.6-4.8,1.9
		c-1.5,0.3-3.2,0.5-4.3,1.4c-2.5,2-5.5,2.5-8.2,3.9c-0.3,0.1-0.6,0.2-1.2,0.3c0.3-0.3,0.4-0.5,0.5-0.6c0-0.1,0-0.2-0.1-0.3
		c-1.2,0.3-2.8,0.2-3.5,1c-1.9,2.1-4.5,2.3-6.7,3.5c-0.7,0.4-1.4,0.7-2.2,1c-0.1,2.8-0.2,5.6-0.3,8.4c0,0.1,0,0.3,0,0.4
		c-0.6,3.5-0.6,7.1-0.7,10.7c-0.1,1.3,0.1,2.7,0,4c-0.1,1.4-0.4,2.7-0.8,4.1c-0.1,0.4-0.9,0.9-1.2,0.8c-0.5-0.2-1-0.7-1.4-1.2
		c-0.2-0.2-0.1-0.6-0.3-1c-0.2,0.4-0.3,0.9-0.5,1.3c-0.9-0.4-1.1-1.1-1-2.1c0.6-6.2,1.2-12.5,1.7-18.7c0.1-1.5,0.3-3,0.5-4.4
		c-0.9,0.1-1.8,0.2-2.6,0.4c-0.3,0.1-0.6,0.6-0.8,0.8c-0.1,0.1-0.3,0.3-0.5,0.3c-1.8,0.4-3.5,0.8-5.2,1.6c-2,1-4.2,1.9-6.2,2.9
		c0.3-0.3,0.6-0.5,0.9-0.8c0-0.1-0.1-0.1-0.1-0.2c-0.2,0-0.5,0-0.7,0.1c-1.3,0.8-2.5,1.6-3.8,2.4c-0.2,0.1-0.5,0.3-0.7,0.4
		c-3.9,1.1-7.4,3-11,4.8c-1.7,0.8-3.6,1.2-5.4,1.8c-0.2,0.1-0.3,0.1-0.5,0.2c-2.2,1.5-4.7,2.1-7.1,3.2c-0.7,0.3-1.2,0.8-1.9,1.1
		c-1.3,0.6-2.7,1.1-4.1,1.6c-0.5,0.2-1.3,0.1-0.9,1c-0.3,0.1-0.7,0.3-1,0.4c-0.1,0-0.4-0.1-0.5,0c-1.2,0.7-2.4,1.4-3.6,2.1
		c-1.5,0.9-3.1,1.7-4.6,2.6c-0.8,0.5-1.6,0.6-2.3-0.1c-0.1-0.1-0.3-0.1-0.6-0.2c0.5-0.6,0.9-1.3,1.5-1.7c1.3-1,2.7-1.8,4.1-2.6
		c0.4-0.2,1-0.1,1.5-0.3c0.5-0.1,1-0.2,1.5-0.5c2.8-1.4,5.8-2.6,8.4-4.2c3.5-2.2,7.3-3.5,11.1-4.8c0.6-0.2,1.3-0.5,1.9-0.9
		c3.1-1.8,6.4-3.3,9.8-4.6c7.2-2.9,14.4-5.9,21.6-8.9c0.6-0.3,1.3-0.5,1.9-0.8c1.9-15.9,3.5-31.8,4.6-47.8c-1.5,1.9-3,3.8-4.4,5.7
		c-0.1,0-0.1-0.1-0.2-0.1c0.3-0.8,0.7-1.5,1-2.3c-0.1-0.1-0.3-0.1-0.4-0.2c-1.7,2.2-3.5,4.3-5.2,6.5c0.1,0.1,0.2,0.2,0.3,0.3
		c1.3-1.3,2.6-2.6,3.9-3.9c0.1,0,0.1,0.1,0.2,0.1c-1.3,1.7-2.6,3.4-4,5.1c0.1,0.1,0.2,0.2,0.2,0.3c0.4-0.2,0.8-0.4,1.2-0.6
		c-0.7,1.1-1.3,2.3-2.1,3.3c-1.8,2.5-3.9,4.6-6.7,6c-1.3,0.6-2.4,0.6-3.4-0.4c-1.1-1.1-2.2-2.2-3.1-3.2c-1.5,2.2-3,4.5-4.7,6.8
		c-0.7,1-1.6,2-2.6,2.8c-2,1.7-4.3,2.1-6.8,1.2c-0.3-0.1-0.7-0.4-0.8-0.7c-0.4-0.9-0.7-1.9-1.1-2.9c-0.1,0.2-0.3,0.6-0.6,0.9
		c-2,2.8-3.9,5.7-5.9,8.4c-1.2,1.6-2.8,2.9-4.8,3.5c-2,0.6-3.4,0.1-4.2-1.7c-0.5-1.1-1-2.4-1-3.6c0.1-4.2,0.4-8.4,0.7-12.6
		c0.1-0.9,0.1-1.8,0.1-2.7c0-0.7-0.4-0.9-0.9-0.4c-0.5,0.4-1,0.9-1.4,1.4c-1.6,2.1-3.3,4.2-4.8,6.3c-1.3,1.8-1.2,4.1-1.4,6.2
		c-0.2,2.3-0.3,4.5-0.5,6.8c-0.2,1.7-0.2,1.7-1.9,1.8c-0.5,0-0.9,0-1.6,0c0.2-9.9,1.3-19.7,2.1-29.7c-0.8,0.9-1.4,1.7-2,2.5
		c-0.5,0.6-0.9,1.1-1.4,1.6c-0.6,0.6-1.4,0.4-1.5-0.4c-0.2-1.8-0.5-3.5,0.9-5.2c1.6-1.9,3.1-4,4.4-6.1c0.6-0.9,1-2,1.2-3
		c1.6-9.3,3.1-18.7,5.6-27.8c1.5-5.5,3.5-10.9,5.1-16.5c0.4-1.5,1.1-2.7,1.7-4.1c0.6-1.2,1.1-2.4,1.5-3.6c0.3-0.8,0.4-1.6,0.7-2.4
		c1.6-3.7,3.7-7,6.2-10.1c1.3-1.6,2.8-2.9,4.8-3.4C145.7,0,146.1,0,146.5,0z M145.9,15.8c-0.2,0.3-0.5,0.7-0.7,1
		c-0.5,1.1-1,2.3-1.5,3.5c-0.5,1.2-1.2,2.4-1.7,3.6c-1.8,4.5-3.4,9-5.3,13.4c-2.8,6.5-5.8,12.9-8.7,19.4c-0.9,2.1-2.1,4-3.2,6
		c-0.4,0.7-0.8,1.4-0.4,2.5c0.3-0.7,0.6-1.2,0.9-1.7c2.4-4.4,4.9-8.8,7.2-13.3c1-1.9,1.5-4,2.6-5.8c1.2-1.9,1.8-3.9,2.6-6
		c0.2-0.6,0.4-1.3,0.7-1.9c0.3-0.7,1-1.2,1.1-1.9c0.3-1.4,0.9-2.6,1.5-3.8c1.1-2.5,1.9-5.1,2.8-7.7c0.3-0.9,1-1.8,0.5-2.9
		c0-0.1,0.1-0.2,0.1-0.3C145.6,18.7,145.4,17.1,145.9,15.8c0.9-2.1,1.3-4.4,1.6-6.6c-0.3,0.9-0.6,1.9-0.8,2.8
		c-0.3,1-0.6,1.9-0.9,2.8C145.7,15.1,145.9,15.5,145.9,15.8z M145.9,4.1c-0.2,0.1-0.3,0.2-0.4,0.2c-5.3,6.4-9.2,13.6-12,21.4
		c-0.7,1.9-1.3,3.8-1.9,5.7c-0.8,2.6-1.7,5.1-2.5,7.7c-0.6,2.1-1,4.3-1.6,6.5c-0.5,1.7-1.2,3.4-1.5,5.2c-0.6,3.8-1.1,7.6-1.6,11.6
		c0.1-0.2,0.2-0.3,0.3-0.5c3-6.3,6-12.5,8.8-18.9c2.8-6.3,5.3-12.7,7.9-19.2c0.7-1.8,1.3-3.7,1.8-5.6c0.7-2.2,1.5-4.4,2-6.6
		c0.4-1.7,0.7-3.5,1-5.2c-0.1,0-0.1,0-0.2,0c-0.2,0.5-0.3,1-0.5,1.5c-0.1,0-0.1,0-0.2-0.1C145.6,6.7,145.7,5.4,145.9,4.1z
		 M148.2,93.8c2.1-0.5,4.6-2,5.9-4.3c1.9-3.4,3.6-6.9,5.3-10.2c-2.6-1.3-1.7-3.8-2.1-5.8C153.9,75.5,148,88.6,148.2,93.8z
		 M179.7,115.4c0.1,0,0.3,0,0.4,0c0-0.4,0.1-0.8,0.1-1.2c0.2-1.3,0.5-2.6,0.7-4c0.2-1.4,0.3-2.9,0.2-4.3c-0.1-1.2-0.2-2.3,0.8-3.2
		c-0.4,0-0.7,0-1.1,0.1C180.4,107,180,111.2,179.7,115.4z M181,101.6c0.1,0,0.2,0.1,0.2,0.1c0.1-0.2,0.4-0.4,0.4-0.6
		c0.1-0.8,0.1-1.7,0.1-2.5c0.2-1.6,0.4-3.3,0.6-4.9c0-0.1-0.2-0.2-0.4-0.5c-0.1,1-0.2,1.9-0.4,2.7C181.1,97.8,181.2,99.7,181,101.6z
		 M178.4,131.2c0.1,0,0.2,0,0.3,0.1c0.2-0.4,0.4-0.7,0.4-1.1c-0.1-1.6-0.2-3.1,0.2-4.7c0.3-1.3,0.2-2.7,0.2-4.1c-0.1,0-0.3,0-0.4,0
		C179,124.7,178.7,128,178.4,131.2z M118.6,87.3c0.1,0,0.2,0,0.3,0c0.3-3.1,0.6-6.2,1-9.4c-0.1,0-0.2,0-0.2,0
		C119.3,81.1,118.9,84.2,118.6,87.3z M182.4,68.4c-1.1,1.4-2.1,2.7-3.2,4.1c0.4,0.1,0.7,0.2,0.7,0.2c0.5-0.8,0.8-1.5,1.3-2
		C181.9,70.2,182.5,69.6,182.4,68.4z M183,86.6c-0.1,0-0.2,0-0.3,0c-0.2,2-0.4,3.9-0.6,5.9c0.1,0,0.3,0,0.4,0
		C182.9,90.6,182.8,88.6,183,86.6z M131.6,86.9c1-1.1,0.7-4.5,0-5.5C131.6,83.1,131.6,85,131.6,86.9z M122.3,58.6
		c-0.1,0-0.1,0-0.2,0c-0.4,2.5-0.8,4.9-1.2,7.4c0.1,0,0.2,0,0.3,0c0.4-2.3,0.7-4.6,1.1-6.9C122.3,59,122.3,58.8,122.3,58.6z
		 M145.2,87.7c-0.5,0.9-0.9,1.7-1.4,2.4C144.5,89.5,145.6,89.1,145.2,87.7z"/>
	<path class="stroke st1" d="M16.1,143.4c-0.1,0.4-0.3,0.9-0.5,1.5c0.3-0.2,0.4-0.4,0.6-0.5c0,0,0.1,0,0.1,0.1c-0.5,0.9-1,1.8-1.5,2.6
		c0.1,0,0.1,0.1,0.2,0.1c0.3-0.4,0.6-0.8,1-1.4c0,0.3,0.1,0.4,0,0.5c-0.8,1.6-1.7,3.2-2.5,4.8c-1,1.8-1.9,3.8-3.2,5.4
		c-1.1,1.4-2.5,2.6-3.9,3.9c-0.7,0.7-2.6,0.6-3.4,0c-1.6-1-2.5-2.6-3.1-4.3c0-1.4,0-2.8,0-4.1c0.2-1.7,0.4-3.3,0.6-5
		c0.4-3.2,0.8-6.3,1.2-9.5c0.1-0.9,0-1.8,0.1-2.7c0.1-0.4,0.4-0.9,0.7-1.2c0.1-0.1,0.6,0.2,0.9,0.3c0.6,0.3,1.1,0.8,1.6,1.1
		c1.1,0.5,1.5,1.4,1.4,2.5c-0.2,2.2-0.4,4.5-0.9,6.6c-0.8,3.7-0.8,7.4-1,11.1c0,0.1,0,0.2,0.1,0.7c1-1.1,1.9-1.9,2.5-2.9
		c2.3-3.6,4.6-7.3,6.8-11c2.2-3.7,4.3-7.4,6.5-11.1c0.1,0,0.2,0,0.3,0c0,0.3,0.2,0.7,0.1,1c-0.3,1-0.7,1.9-1.1,2.9
		c-0.2,0.5-0.4,1-0.7,1.5c-0.1,0.1-0.1,0.1-0.2,0.2c-0.3,0.4-0.6,0.8-1,1.2c-0.2-0.3-0.3-0.5-0.4-0.9c0.1,1.1-1.9,1.5-0.7,2.7
		c-0.4,0.7-0.9,1.4-1.3,2.2c-0.1-0.3-0.1-0.4-0.3-0.8c-0.3,0.8-0.6,1.4-1,2.2c0.6-0.4,1-0.6,1.3-0.8c0.1,0.1,0.1,0.1,0.2,0.2
		c-0.3,0.4-0.6,0.8-0.8,1.2c0,0,0.1,0.1,0.1,0.1C15.5,143.8,15.8,143.6,16.1,143.4L16.1,143.4z"/>
	<path class="stroke st2" d="M112.5,64c-0.2,5-1.7,10-5.1,14.2c-0.4,0.4-0.8,0.9-1.3,1.2c-1.2,0.9-2.7,0.6-3.3-0.8c-0.2-0.4,0-1.1,0.3-1.6
		c0.9-1.7,2.1-3.3,3-4.9c1.8-3.4,2.1-7,1.4-10.7c-0.7-3.7-3.8-5.3-7.6-3c-0.9,0.5-1.9,0.9-2.9,1.4c-1.5,0.8-2.6,2.2-4.3,2.9
		c-0.3,0.1-0.7,0.5-0.8,0.9c-0.7,1.4-1.6,2.5-3.1,3.3c-0.2,0.1-0.4,0.3-0.5,0.5c-1.2,3-3.4,5.3-5.3,7.8c-2.7,3.6-5.1,7.3-6.4,11.7
		c-0.7,2.3-0.8,4.7-0.1,7c0.9,3,2.8,5.3,5.8,6.3c3.6,1.2,7.2,2.1,10.8,3.1c3.1,0.9,6,2.1,8.8,3.7c3.2,1.9,5.5,4.6,7.1,8
		c1.5,3.2,0.8,6.4-0.5,9.5c-1.8,4-4.6,7.4-7.7,10.4c-6.5,6.4-14,11-23,12.9c-2.1,0.5-4.2,0.7-6.4,0.3c-3.1-0.6-5.6-2.1-7.2-4.8
		c-2.8-4.6-3.7-9.5-1.8-14.6c1.2-3.3,3.3-6,6-8.3c1.1-0.9,2.5-1,3.6-0.3c1.1,0.7,1.2,1.6,0.2,2.5c-1.2,1.2-2.4,2.3-3.4,3.6
		c-3.7,5.1-2.5,12.7,0.3,16.7c1.3,1.8,3.2,2.3,5.2,2.5c2.2,0.2,4.2-0.5,6.2-1.3c7-2.9,12.6-7.6,17.6-13.2c2.5-2.8,4.7-5.7,6-9.2
		c2-5.3,0.9-9-3.7-12.3c-3.5-2.5-7.4-3.5-11.5-4.5c-3.3-0.8-6.6-2-9.7-3.4c-6.8-3.1-8.6-10.1-6.9-16.6c1.1-4.3,3.4-8.1,6-11.7
		c4.3-6,9.5-11.1,15.4-15.5c2.9-2.2,6.2-3.7,9.8-4.4c1.1-0.2,2.3-0.2,3.5-0.1c1.8,0.2,3,1.5,3.8,3C112.1,58.5,112.4,61,112.5,64z
		 M76.3,79.5c0.1-0.2,0.2-0.4,0.4-0.6c1.4-2.1,2.8-4.2,4.4-6.2c0.8-1.1,1.8-2,2.7-3c0.3-0.3,0.4-0.7,0.6-1.1
		C81.6,70.6,76.8,77,76.3,79.5z M105.4,123c-0.1-0.1-0.3-0.1-0.4-0.2c-0.7,1.3-1.5,2.7-2.2,4c0.1,0.1,0.3,0.2,0.4,0.2
		C103.9,125.7,104.6,124.3,105.4,123z"/>
	<path class="stroke st3" d="M232.1,57.9c0,0.1-0.1,0.3-0.2,0.8c0.4-0.1,0.7-0.2,1.1-0.4c-0.5,0.7-0.9,1.4-1.4,2.2c0.5,0.1,0.8,0.1,1.3,0.2
		c-0.1,0.2-0.2,0.4-0.3,0.6c0.1,0,0.1,0.1,0.2,0.1c1.1-1.4,2.2-2.7,3.3-4.1c0.1,0,0.1,0.1,0.2,0.1c-0.1,0.3-0.2,0.7-0.4,0.9
		c-2.4,3.3-4.9,6.5-7.3,9.7c-0.3,0.4-0.7,0.8-1.1,1.1c-1.6,1.1-3.1,2.3-4.8,3.3c-2.6,1.6-5.4,2.1-8.3,0.6c-2.3-1.2-3.2-3.2-3.5-5.5
		c-0.6-4.2,0.2-8.2,1.9-12.1c0.9-1.9,1.9-3.8,2.8-5.7c1.1-2.3,3.2-3.5,5.3-4.8c0.3-0.2,0.8-0.2,1.1-0.1c1.2,0.3,2.5,0.7,3.6,1.2
		c1.5,0.7,2.4,2.4,1.8,3.9c-1.1,2.5-2.4,5-3.8,7.4c-0.7,1.2-1.5,2.4-2.3,3.6c-0.5,0.8-1.1,1.6-1.7,2.4c-1.2,1.5-2.6,2.9-3.8,4.5
		c-0.2,0.3-0.1,1,0.1,1.3c0.3,0.3,1,0.7,1.3,0.5c2.3-0.9,4.6-1.8,6.4-3.6C226.6,63.3,229.4,60.6,232.1,57.9z M223.3,47.6
		c-5.1,2.8-7.9,10.5-8.1,14.8c0.8-0.7,1.5-1.5,2.3-2.2c0.3-0.3,0.5-0.6,0.6-0.9c0.2-0.5,0.2-1.1,0.5-1.5c0.5-0.9,1.3-1.7,1.8-2.6
		c1.1-1.9,2.1-3.8,3-5.7C223.5,48.9,223.3,48.3,223.3,47.6z M224.7,48.6c-0.1,0-0.2,0-0.3-0.1c-0.2,1-0.4,2.1-0.6,3.1
		c0.1,0,0.3,0.1,0.4,0.1C224.4,50.7,225.3,49.8,224.7,48.6z"/>
	<path class="stroke st4" d="M245.1,40.3c0.7-1.5,1.5-3.2,2.4-4.9c1.1-1.8,2.2-3.7,3.5-5.3c1.4-1.8,2.9-1.9,4.8-0.7
		c0.7,0.4,1.3,0.9,1.8,1.5c0.6,0.7,0.2,1.5-0.6,1.5c-3-0.2-3.9,2.2-5.1,4c-2.2,3.3-3.8,7.1-5.2,10.9c-1.8,4.8-3.3,9.6-3.3,14.8
		c0,0.4,0,0.9-0.2,1.2c-0.3,0.4-0.7,1-1.1,1c-0.4,0-0.8-0.6-1.1-1c-0.1-0.2-0.1-0.5-0.2-1c-0.3,0.4-0.5,0.7-0.7,1.1
		c-0.7-1-1.1-2.1-1-3.3c0.2-2.7,0.4-5.4,0.5-8c0-0.6,0.1-1.2,0.1-2c-0.4,0.4-0.6,0.6-0.7,0.8c-0.4,0.9-0.7,1.8-1.1,2.6
		c-0.9,2.4-2.5,4.3-4,6.3c-0.2,0.2-0.5,0.3-0.8,0.4c-0.1,0-0.3-0.3-0.3-0.5c0-0.2,0.1-0.4,0.2-0.5c1-1,2-2,3-3.1
		c0.2-0.2,0.2-0.7,0.3-1.3c-1.5,1.1-1.7,2.9-3.2,3.5c-0.1-0.1-0.1-0.1-0.2-0.2c0.6-0.7,1.1-1.5,1.8-2.4c-0.7,0.8-1.3,1.4-1.9,2
		c-0.1-0.1-0.2-0.2-0.3-0.3c0.2-0.2,0.3-0.5,0.5-0.7c1.3-1.5,2.6-3,4-4.5c0.2-0.2,0.6-0.4,0.9-0.5c0.1,0,0.2,0,0.3-0.1
		c0.4-0.8,0.9-1.6,1.2-2.4c1.2-3.8,0.9-7.8,1.2-11.7c0-0.3,0.1-0.6,0.1-0.9c0.2-0.8,1.2-1.7,2-1.8c1,0,1.3,0.7,1.5,1.4
		C244.5,37.4,244.8,39,245.1,40.3z M245.8,41.4c0.1,0,0.2,0.1,0.2,0.1c1.4-2.8,2.8-5.5,4.3-8.3c-0.1-0.1-0.2-0.1-0.3-0.2
		C248.6,35.8,246.5,38.3,245.8,41.4z M250,37c-0.1-0.1-0.2-0.1-0.3-0.2c-0.6,1.1-1.2,2.3-1.8,3.4c0.1,0,0.1,0.1,0.2,0.1
		C248.8,39.2,249.4,38.1,250,37z"/>
	<path class="stroke st5" d="M49,124c-0.1,0-0.5,0-0.7,0.1c-1.8,0.6-3.6,1.1-5.3,1.9c-3.3,1.4-6.6,2.9-9.9,4.3c-1,0.4-2.1,0.8-3.1,1.2
		c-0.9,0.3-1.3,0-1.2-0.9c0.4-1.8,0.8-3.5,3-4.3c4.5-1.6,8.9-3.4,13.4-5c1.3-0.5,2.8-0.6,4.2-0.8c1.5-0.2,2,0.4,2,2.2
		c0,0.8-0.8,1.4-1.9,1.4C49.4,124.1,49.3,124,49,124z"/>
	<path class="stroke st6" d="M8.8,119.4c-0.1,2.1-1.1,3.7-2.5,5.1c-1,1-3.1,0.5-3.6-0.9c-0.3-0.8-0.4-1.8-0.3-2.7c0.3-1.9,1.4-3.4,2.7-4.6
		c1.2-1.1,2.5-1.4,3.1,0.7C8.4,117.8,8.6,118.6,8.8,119.4z"/>
	<path class="stroke st7" d="M19,136.7c0.1-0.1,0.1-0.1,0.2-0.2c0.2-0.1,0.3-0.1,0.6-0.3c-1.1,2.6-2.1,5.1-3.7,7.2l0,0
		c0.3-0.9,0.5-1.8,0.9-2.7C17.7,139.4,18.4,138,19,136.7z"/>
	<path class="stroke st8" d="M296,124.1c0.2-0.8,4.1-1.5,5.8-1c-0.3,0.1-0.5,0.1-0.8,0.2c0.3,0.1,0.5,0.1,0.9,0.2
		C299.8,123.7,298,123.9,296,124.1z"/>
	<path class="stroke st9" d="M310,123.6c-1.2,0-2.4,0-3.7,0C307.6,122.6,308.8,123.3,310,123.6L310,123.6z"/>
	<path class="stroke st10" d="M309.9,123.6c1.2,0.1,2,0.5,2.6,1.6C311.7,124.6,310.8,124.1,309.9,123.6C310,123.6,309.9,123.6,309.9,123.6z"
		/>
</g>
</svg>
